<svg width="11" height="11" viewBox="0 0 11 11" fill="none" xmlns="http://www.w3.org/2000/svg">
<path fill-rule="evenodd" clip-rule="evenodd" d="M5.0904 1.46045e-07C4.42493 -0.000203665 3.77692 0.212917 3.24147 0.608081C2.70603 1.00325 2.31136 1.55964 2.11538 2.1956C1.91941 2.83157 1.93246 3.5136 2.15261 4.14161C2.37276 4.76961 2.78843 5.3105 3.33859 5.6849C2.38375 6.03511 1.55556 6.66306 0.96061 7.48792C0.365658 8.31279 0.0311693 9.29682 0.000191144 10.3134C-0.00318538 10.4259 0.0382871 10.5352 0.115485 10.6172C0.192683 10.6992 0.299282 10.7471 0.411833 10.7505C0.524384 10.7539 0.633666 10.7124 0.715639 10.6352C0.797612 10.558 0.845561 10.4514 0.848937 10.3389C0.882632 9.23631 1.3443 8.19021 2.1361 7.42223C2.92791 6.65426 3.98763 6.22476 5.09069 6.22476C6.19375 6.22476 7.25346 6.65426 8.04527 7.42223C8.83707 8.19021 9.29874 9.23631 9.33244 10.3389C9.33287 10.3954 9.34458 10.4512 9.36688 10.5031C9.38918 10.555 9.42163 10.602 9.46231 10.6412C9.503 10.6804 9.55111 10.7111 9.60382 10.7315C9.65652 10.7518 9.71277 10.7615 9.76925 10.7598C9.82573 10.7582 9.88131 10.7452 9.93273 10.7218C9.98415 10.6984 10.0304 10.6649 10.0687 10.6234C10.107 10.5819 10.1366 10.5331 10.1559 10.48C10.1751 10.4268 10.1835 10.3704 10.1806 10.314C10.1497 9.29729 9.81531 8.31313 9.22035 7.48816C8.62539 6.66318 7.79714 6.03515 6.84222 5.6849C7.39238 5.3105 7.80804 4.76961 8.0282 4.14161C8.24835 3.5136 8.2614 2.83157 8.06542 2.1956C7.86945 1.55964 7.47478 1.00325 6.93933 0.608081C6.40389 0.212917 5.75588 -0.000203665 5.0904 1.46045e-07ZM2.82708 3.11207C2.82708 2.5118 3.06554 1.93611 3.48999 1.51166C3.91445 1.0872 4.49013 0.848746 5.0904 0.848746C5.69067 0.848746 6.26636 1.0872 6.69081 1.51166C7.11527 1.93611 7.35373 2.5118 7.35373 3.11207C7.35373 3.71234 7.11527 4.28802 6.69081 4.71248C6.26636 5.13693 5.69067 5.37539 5.0904 5.37539C4.49013 5.37539 3.91445 5.13693 3.48999 4.71248C3.06554 4.28802 2.82708 3.71234 2.82708 3.11207Z" fill="white"/>
</svg>
