<svg width="40" height="40" viewBox="0 0 40 40" fill="none" xmlns="http://www.w3.org/2000/svg">
<path d="M36.6667 40L26.5625 29.9221C23.6458 32.1385 20.3472 33.2468 16.6667 33.2468C13.6806 33.2468 10.9028 32.5195 8.33333 31.0649C5.76389 29.5411 3.75 27.4978 2.29167 24.9351C0.763889 22.3723 0 19.6017 0 16.6234C0 13.645 0.763889 10.8745 2.29167 8.31169C3.75 5.74892 5.76389 3.74026 8.33333 2.28571C10.9028 0.761905 13.6806 0 16.6667 0C19.6528 0 22.4306 0.761905 25 2.28571C27.5694 3.74026 29.6181 5.74892 31.1458 8.31169C32.6042 10.8745 33.3333 13.645 33.3333 16.6234C33.3333 20.3636 32.1875 23.6883 29.8958 26.5974L40 36.6753L36.6667 40ZM16.5625 28.3636C19.8264 28.3636 22.6042 27.2208 24.8958 24.9351C27.1181 22.6494 28.2292 19.9134 28.2292 16.7273C28.2292 13.4719 27.1181 10.7359 24.8958 8.51948C22.6042 6.23377 19.8264 5.09091 16.5625 5.09091C13.3681 5.09091 10.625 6.23377 8.33333 8.51948C6.04167 10.7359 4.89583 13.4719 4.89583 16.7273C4.89583 19.9134 6.04167 22.6494 8.33333 24.9351C10.625 27.2208 13.3681 28.3636 16.5625 28.3636Z" fill="black"/>
</svg>
