<svg width="30" height="30" viewBox="0 0 30 30" fill="none" xmlns="http://www.w3.org/2000/svg">
<path fill-rule="evenodd" clip-rule="evenodd" d="M14.1651 26.2175L7.67291 29.7843C6.79597 30.2661 5.71133 29.9137 5.2503 28.9973C5.06671 28.6324 5.00336 28.2144 5.07005 27.8081L6.30995 20.2535C6.40976 19.6454 6.21683 19.0249 5.79403 18.5942L0.541738 13.244C-0.16772 12.5214 -0.182237 11.3345 0.509314 10.5931C0.784693 10.2979 1.14552 10.1058 1.53594 10.0465L8.79444 8.94428C9.37873 8.85556 9.88383 8.47206 10.1451 7.91877L13.3912 1.04541C13.8297 0.116985 14.9054 -0.264204 15.7938 0.194001C16.1476 0.376461 16.4339 0.675706 16.6085 1.04541L19.8546 7.91877C20.1159 8.47206 20.621 8.85556 21.2053 8.94428L28.4638 10.0465C29.4443 10.1954 30.1236 11.1466 29.9811 12.1712C29.9244 12.5792 29.7405 12.9563 29.458 13.244L24.2057 18.5942C23.7829 19.0249 23.59 19.6454 23.6898 20.2535L24.9297 27.8081C25.0972 28.8285 24.4414 29.7976 23.4649 29.9726C23.076 30.0423 22.6761 29.9761 22.3269 29.7843L15.8347 26.2175C15.3121 25.9304 14.6877 25.9304 14.1651 26.2175ZM12.7206 23.5882C14.1428 22.8068 15.857 22.8068 17.2792 23.5882L21.5853 25.9539L20.7294 20.7394C20.4756 19.1932 20.9679 17.61 22.0649 16.4926L25.8098 12.6779L20.7549 11.9103C19.1726 11.67 17.8255 10.6472 17.1419 9.1999L14.9999 4.66426L12.8578 9.1999C12.1743 10.6472 10.8272 11.67 9.24482 11.9103L4.18993 12.6779L7.93484 16.4926C9.03188 17.61 9.52412 19.1932 9.27035 20.7394L8.41451 25.9539L12.7206 23.5882Z" fill="white"/>
</svg>
